<svg width="26" height="26" viewBox="0 0 26 26" fill="none" xmlns="http://www.w3.org/2000/svg">
<path fill-rule="evenodd" clip-rule="evenodd" d="M18 1.25C21.7279 1.25 24.75 4.27208 24.75 8V18C24.75 21.7279 21.7279 24.75 18 24.75H8C4.27208 24.75 1.25 21.7279 1.25 18V8C1.25 4.27208 4.27208 1.25 8 1.25H18ZM18 2.75H8C5.10051 2.75 2.75 5.10051 2.75 8V18C2.75 20.8995 5.10051 23.25 8 23.25H18C20.8995 23.25 23.25 20.8995 23.25 18V8C23.25 5.10051 20.8995 2.75 18 2.75ZM13.7432 6.89823C13.6935 6.53215 13.3797 6.25 13 6.25L12.8982 6.25685L12.8006 6.27679C12.4832 6.36411 12.25 6.65482 12.25 7V12.249L7 12.25L6.89823 12.2568C6.53215 12.3065 6.25 12.6203 6.25 13L6.25685 13.1018C6.30651 13.4678 6.6203 13.75 7 13.75L12.25 13.749V19L12.2568 19.1018C12.3065 19.4678 12.6203 19.75 13 19.75L13.1018 19.7432C13.4678 19.6935 13.75 19.3797 13.75 19V13.75H19L19.1018 13.7432C19.4678 13.6935 19.75 13.3797 19.75 13L19.7432 12.8982C19.6935 12.5322 19.3797 12.25 19 12.25H13.75V7L13.7432 6.89823Z" fill="#262626"/>
<path d="M13 6.25V5.25H12.9664L12.9329 5.25226L13 6.25ZM13.7432 6.89823L14.7409 6.83111L14.7386 6.79734L14.7341 6.7638L13.7432 6.89823ZM12.8982 6.25685L12.8311 5.2591L12.764 5.26362L12.698 5.27709L12.8982 6.25685ZM12.8006 6.27679L12.6004 5.29703L12.5677 5.30373L12.5354 5.3126L12.8006 6.27679ZM12.25 12.249L12.2502 13.249L13.25 13.2488V12.249H12.25ZM7 12.25L6.99981 11.25L6.96631 11.25L6.93288 11.2523L7 12.25ZM6.89823 12.2568L6.83111 11.2591L6.79734 11.2614L6.7638 11.2659L6.89823 12.2568ZM6.25 13H5.25V13.0336L5.25226 13.0671L6.25 13ZM6.25685 13.1018L5.2591 13.1689L5.26137 13.2027L5.26592 13.2362L6.25685 13.1018ZM7 13.75L7 14.75L7.00019 14.75L7 13.75ZM12.25 13.749H13.25V12.7488L12.2498 12.749L12.25 13.749ZM12.25 19H11.25V19.0336L11.2523 19.0671L12.25 19ZM12.2568 19.1018L11.2591 19.1689L11.2614 19.2027L11.2659 19.2362L12.2568 19.1018ZM13 19.75V20.75H13.0336L13.0671 20.7477L13 19.75ZM13.1018 19.7432L13.1689 20.7409L13.2027 20.7386L13.2362 20.7341L13.1018 19.7432ZM13.75 13.75V12.75H12.75V13.75H13.75ZM19 13.75V14.75H19.0336L19.0671 14.7477L19 13.75ZM19.1018 13.7432L19.1689 14.7409L19.2027 14.7386L19.2362 14.7341L19.1018 13.7432ZM19.75 13H20.75V12.9664L20.7477 12.9329L19.75 13ZM19.7432 12.8982L20.7409 12.8311L20.7386 12.7973L20.7341 12.7638L19.7432 12.8982ZM13.75 12.25H12.75V13.25H13.75V12.25ZM13.75 7H14.75V6.9664L14.7477 6.93288L13.75 7ZM25.75 8C25.75 3.71979 22.2802 0.25 18 0.25V2.25C21.1756 2.25 23.75 4.82436 23.75 8H25.75ZM25.75 18V8H23.75V18H25.75ZM18 25.75C22.2802 25.75 25.75 22.2802 25.75 18H23.75C23.75 21.1756 21.1756 23.75 18 23.75V25.75ZM8 25.75H18V23.75H8V25.75ZM0.25 18C0.25 22.2802 3.71979 25.75 8 25.75V23.75C4.82436 23.75 2.25 21.1756 2.25 18H0.25ZM0.25 8V18H2.25V8H0.25ZM8 0.25C3.71979 0.25 0.25 3.71979 0.25 8H2.25C2.25 4.82436 4.82436 2.25 8 2.25V0.25ZM18 0.25H8V2.25H18V0.25ZM8 3.75H18V1.75H8V3.75ZM3.75 8C3.75 5.65279 5.65279 3.75 8 3.75V1.75C4.54822 1.75 1.75 4.54822 1.75 8H3.75ZM3.75 18V8H1.75V18H3.75ZM8 22.25C5.65279 22.25 3.75 20.3472 3.75 18H1.75C1.75 21.4518 4.54822 24.25 8 24.25V22.25ZM18 22.25H8V24.25H18V22.25ZM22.25 18C22.25 20.3472 20.3472 22.25 18 22.25V24.25C21.4518 24.25 24.25 21.4518 24.25 18H22.25ZM22.25 8V18H24.25V8H22.25ZM18 3.75C20.3472 3.75 22.25 5.65279 22.25 8H24.25C24.25 4.54822 21.4518 1.75 18 1.75V3.75ZM13 7.25C12.8726 7.25 12.7689 7.15566 12.7522 7.03266L14.7341 6.7638C14.6181 5.90865 13.8868 5.25 13 5.25V7.25ZM12.9654 7.25459L13.0671 7.24774L12.9329 5.25226L12.8311 5.2591L12.9654 7.25459ZM13.0008 7.25655L13.0984 7.2366L12.698 5.27709L12.6004 5.29703L13.0008 7.25655ZM13.25 7C13.25 7.11648 13.1712 7.21199 13.0658 7.24098L12.5354 5.3126C11.7952 5.51622 11.25 6.19316 11.25 7H13.25ZM13.25 12.249V7H11.25V12.249H13.25ZM7.00019 13.25L12.2502 13.249L12.2498 11.249L6.99981 11.25L7.00019 13.25ZM6.96535 13.2546L7.06712 13.2477L6.93288 11.2523L6.83111 11.2591L6.96535 13.2546ZM7.25 13C7.25 13.1274 7.15566 13.2311 7.03266 13.2478L6.7638 11.2659C5.90865 11.3819 5.25 12.1132 5.25 13H7.25ZM7.25459 13.0346L7.24774 12.9329L5.25226 13.0671L5.2591 13.1689L7.25459 13.0346ZM7 12.75C7.12738 12.75 7.23108 12.8443 7.24777 12.9673L5.26592 13.2362C5.38194 14.0914 6.11322 14.75 7 14.75V12.75ZM12.2498 12.749L6.99981 12.75L7.00019 14.75L12.2502 14.749L12.2498 12.749ZM13.25 19V13.749H11.25V19H13.25ZM13.2546 19.0346L13.2477 18.9329L11.2523 19.0671L11.2591 19.1689L13.2546 19.0346ZM13 18.75C13.1274 18.75 13.2311 18.8443 13.2478 18.9673L11.2659 19.2362C11.3819 20.0914 12.1132 20.75 13 20.75V18.75ZM13.0346 18.7454L12.9329 18.7523L13.0671 20.7477L13.1689 20.7409L13.0346 18.7454ZM12.75 19C12.75 18.8726 12.8443 18.7689 12.9673 18.7522L13.2362 20.7341C14.0914 20.6181 14.75 19.8868 14.75 19H12.75ZM12.75 13.75V19H14.75V13.75H12.75ZM19 12.75H13.75V14.75H19V12.75ZM19.0346 12.7454L18.9329 12.7523L19.0671 14.7477L19.1689 14.7409L19.0346 12.7454ZM18.75 13C18.75 12.8726 18.8443 12.7689 18.9673 12.7522L19.2362 14.7341C20.0914 14.6181 20.75 13.8868 20.75 13H18.75ZM18.7454 12.9654L18.7523 13.0671L20.7477 12.9329L20.7409 12.8311L18.7454 12.9654ZM19 13.25C18.8726 13.25 18.7689 13.1557 18.7522 13.0327L20.7341 12.7638C20.6181 11.9086 19.8868 11.25 19 11.25V13.25ZM13.75 13.25H19V11.25H13.75V13.25ZM12.75 7V12.25H14.75V7H12.75ZM12.7454 6.96535L12.7523 7.06712L14.7477 6.93288L14.7409 6.83111L12.7454 6.96535Z" fill="#262626"/>
</svg>
